HIERARCHY
ROOT Hips
{
	OFFSET 0.00000 0.00000 0.00000
	CHANNELS 6 Xposition Yposition Zposition Zrotation Yrotation Xrotation 
	JOINT LHipJoint
	{
		OFFSET 0 0 0
		CHANNELS 3 Zrotation Yrotation Xrotation
		JOINT LeftUpLeg
		{
			OFFSET 1.24777 -1.64261 0.71711
			CHANNELS 3 Zrotation Yrotation Xrotation
			JOINT LeftLeg
			{
				OFFSET 2.49329 -6.85026 0.00000
				CHANNELS 3 Zrotation Yrotation Xrotation
				JOINT LeftFoot
				{
					OFFSET 2.36770 -6.50520 0.00000
					CHANNELS 3 Zrotation Yrotation Xrotation
					JOINT LeftToeBase
					{
						OFFSET 0.14820 -0.40718 2.21395
						CHANNELS 3 Zrotation Yrotation Xrotation
						End Site
						{
							OFFSET 0.00000 -0.00000 1.13491
						}
					}
				}
			}
		}
	}
	JOINT RHipJoint
	{
		OFFSET 0 0 0
		CHANNELS 3 Zrotation Yrotation Xrotation
		JOINT RightUpLeg
		{
			OFFSET -1.18320 -1.64261 0.71711
			CHANNELS 3 Zrotation Yrotation Xrotation
			JOINT RightLeg
			{
				OFFSET -2.46559 -6.77417 0.00000
				CHANNELS 3 Zrotation Yrotation Xrotation
				JOINT RightFoot
				{
					OFFSET -2.38450 -6.55136 0.00000
					CHANNELS 3 Zrotation Yrotation Xrotation
					JOINT RightToeBase
					{
						OFFSET -0.17454 -0.47954 2.02925
						CHANNELS 3 Zrotation Yrotation Xrotation
						End Site
						{
							OFFSET -0.00000 -0.00000 1.05076
						}
					}
				}
			}
		}
	}
	JOINT LowerBack
	{
		OFFSET 0 0 0
		CHANNELS 3 Zrotation Yrotation Xrotation
		JOINT Spine
		{
			OFFSET -0.02305 1.98660 0.00319
			CHANNELS 3 Zrotation Yrotation Xrotation
			JOINT Spine1
			{
				OFFSET -0.00718 1.99033 -0.00533
				CHANNELS 3 Zrotation Yrotation Xrotation
				JOINT Neck
				{
					OFFSET 0 0 0
					CHANNELS 3 Zrotation Yrotation Xrotation
					JOINT Neck1
					{
						OFFSET 0.00095 1.61015 0.10698
						CHANNELS 3 Zrotation Yrotation Xrotation
						JOINT Head
						{
							OFFSET -0.01060 1.59924 0.01317
							CHANNELS 3 Zrotation Yrotation Xrotation
							End Site
							{
								OFFSET -0.00458 1.63304 -0.00592
							}
						}
					}
				}
				JOINT LeftShoulder
				{
					OFFSET 0 0 0
					CHANNELS 3 Zrotation Yrotation Xrotation
					JOINT LeftArm
					{
						OFFSET 3.05381 1.47088 -0.01697
						CHANNELS 3 Zrotation Yrotation Xrotation
						JOINT LeftForeArm
						{
							OFFSET 4.25106 -0.00000 0.00000
							CHANNELS 3 Zrotation Yrotation Xrotation
							JOINT LeftHand
							{
								OFFSET 3.27592 -0.00000 0.00000
								CHANNELS 3 Zrotation Yrotation Xrotation
								JOINT LeftFingerBase
								{
									OFFSET 0 0 0
									CHANNELS 3 Zrotation Yrotation Xrotation
									JOINT LeftHandIndex1
									{
										OFFSET 0.65781 -0.00000 0.00000
										CHANNELS 3 Zrotation Yrotation Xrotation
										End Site
										{
											OFFSET 0.53034 -0.00000 0.00000
										}
									}
								}
								JOINT LThumb
								{
									OFFSET 0 0 0
									CHANNELS 3 Zrotation Yrotation Xrotation
									End Site
									{
										OFFSET 0.53844 -0.00000 0.53844
									}
								}
							}
						}
					}
				}
				JOINT RightShoulder
				{
					OFFSET 0 0 0
					CHANNELS 3 Zrotation Yrotation Xrotation
					JOINT RightArm
					{
						OFFSET -2.83695 1.31619 -0.22674
						CHANNELS 3 Zrotation Yrotation Xrotation
						JOINT RightForeArm
						{
							OFFSET -4.46073 -0.00000 0.00000
							CHANNELS 3 Zrotation Yrotation Xrotation
							JOINT RightHand
							{
								OFFSET -3.44416 -0.00000 0.00000
								CHANNELS 3 Zrotation Yrotation Xrotation
								JOINT RightFingerBase
								{
									OFFSET 0 0 0
									CHANNELS 3 Zrotation Yrotation Xrotation
									JOINT RightHandIndex1
									{
										OFFSET -0.61651 -0.00000 0.00000
										CHANNELS 3 Zrotation Yrotation Xrotation
										End Site
										{
											OFFSET -0.49705 -0.00000 0.00000
										}
									}
								}
								JOINT RThumb
								{
									OFFSET 0 0 0
									CHANNELS 3 Zrotation Yrotation Xrotation
									End Site
									{
										OFFSET -0.50464 -0.00000 0.50464
									}
								}
							}
						}
					}
				}
			}
		}
	}
}
MOTION
Frames: 11
Frame Time: 0.0178571
0.00 0.00 0.00 0 0 0 0 0 0 -21 0 0 0 0 0 0 0 0 0 0 0 0 0 0 21 0 0 0 0 0 0 0 0 0 0 0 0 0 0 0 0 0 0 0 0 0 0 -16 0 0 21 0 0 11 0 0 0 -8 0 0 0 0 0 0 0 0 0 0 0 0 0 0 0 0 0 0 0 0 8 0 0 0 0 0 0 0 0 0 0 0 0 0 0 0 0 0
0.00 0.00 0.00 -2.8817 1.1520 11.6433 0.0000 0.0000 0.0000 -16.5855 4.4309 -36.8782 6.9483 15.2882 48.6785 1.8629 -9.7760 -24.4976 3.9326 12.0702 35.9806 0.0000 0.0000 0.0000 24.8363 6.1740 -20.6244 -3.3360 -11.2201 33.0257 -2.2866 -12.4422 -35.1869 -0.2679 3.3299 -9.1986 -5.6814 2.8404 -6.9001 6.3370 4.1328 -4.0294 10.1591 2.3177 -1.2441 -5.6942 -3.1082 -7.1842 0.4364 -3.6700 -0.4274 0.9798 -1.8248 1.1981 -0.0000 -0.0000 0.0000 -94.5931 11.6018 37.5089 23.2325 -34.3420 -7.2690 -0.0000 0.0000 -3.7052 8.5648 1.5469 0.2329 -7.1250 0.0000 -0.0000 -14.3078 31.3370 4.9154 -0.0000 -0.0000 0.0000 75.7482 -13.4176 37.6456 -20.8101 31.6061 -5.9501 0.0000 0.0000 10.7451 -24.0385 -11.9585 5.2803 7.1250 -0.0000 -0.0000 2.8768 -43.0184 0.1408
0.00 0.00 0.00 -4.8117 6.8443 10.6085 0.0000 0.0000 0.0000 -11.3094 -9.3020 -39.9708 6.2179 14.6362 45.8500 1.0823 -9.8175 -18.7976 4.1405 12.3451 36.9639 0.0000 0.0000 0.0000 23.9495 -12.4992 -28.4464 -6.7143 -15.0865 47.7853 -2.1515 1.4151 -27.3683 -2.8824 10.5022 -30.6189 -10.5223 -0.6105 -6.7331 10.8569 -0.0857 -9.0155 18.6035 1.1934 -6.1081 -10.5743 -0.7366 -0.1085 0.7334 -1.0105 -1.7919 2.0486 -0.4398 -0.4894 -0.0000 0.0000 0.0000 -106.8684 25.2869 12.5347 29.9685 -40.8664 -11.3890 -0.0000 0.0000 -8.6798 -6.0120 19.4411 -2.0076 -7.1250 0.0000 -0.0000 -32.0517 46.6543 -1.4564 -0.0000 0.0000 0.0000 57.1286 -15.7675 45.9655 -26.1665 37.3727 -8.9885 0.0000 0.0000 2.2188 -18.9063 -10.8765 3.6977 7.1250 -0.0000 -0.0000 7.2839 -41.3507 0.6595
0.00 0.00 0.00 -4.4177 8.3359 8.7561 0.0000 0.0000 0.0000 -12.6984 -9.5455 -37.1071 6.1957 14.6153 45.7620 1.1630 -10.7811 -19.5848 4.2340 12.4655 37.3992 0.0000 0.0000 0.0000 19.0526 -12.0097 -32.1616 -10.0419 -17.4334 59.6284 -0.4897 11.7418 -13.9508 -2.9181 10.5612 -30.8140 -10.0996 -0.7209 -5.4015 10.2181 -0.3458 -9.1522 17.5052 1.0657 -6.8767 -10.0377 -0.9508 0.3931 1.2001 -1.3251 -0.8489 2.1052 -0.6349 -0.2579 0.0000 -0.0000 0.0000 -105.6076 26.5227 12.4850 30.6153 -41.4150 -11.8145 -0.0000 0.0000 -10.9370 -4.4037 20.9922 -1.5803 -7.1250 0.0000 -0.0000 -31.5214 48.2069 -2.7509 0.0000 -0.0000 0.0000 56.9024 -17.7991 42.4583 -26.9816 38.1616 -9.4877 0.0000 -0.0000 -2.0361 -20.0697 -10.4643 3.7963 7.1250 -0.0000 -0.0000 6.1923 -41.0262 0.6095
0.00 0.00 0.00 -4.1194 9.1619 7.5385 0.0000 0.0000 0.0000 -13.6135 -8.9867 -35.2810 6.0700 14.4958 45.2621 1.1395 -12.1242 -19.6524 4.6783 13.0121 39.4136 0.0000 0.0000 0.0000 14.5290 -8.1650 -34.5316 -12.7453 -18.6882 68.3324 1.0686 17.9381 6.3131 -0.4254 -4.1861 11.6007 -10.0881 -0.7530 -4.2129 9.7819 -0.4861 -9.1407 16.9652 1.0170 -7.4801 -9.4128 -1.0957 0.3452 1.2963 -1.4937 -0.0010 2.0190 -0.7470 0.0246 -0.0000 0.0000 0.0000 -104.3778 27.2048 13.1392 31.1125 -41.8281 -12.1448 -0.0000 0.0000 -11.8797 -3.9604 21.4804 -1.4522 -7.1250 0.0000 -0.0000 -31.4119 48.6901 -3.1467 -0.0000 0.0000 0.0000 56.8380 -18.6139 39.6966 -27.0176 38.1960 -9.5100 0.0000 -0.0000 -2.7792 -21.2466 -11.1903 4.3151 7.1250 -0.0000 -0.0000 5.2670 -41.9049 0.4034
0.00 0.00 0.00 -3.6473 10.2168 5.9701 0.0000 0.0000 0.0000 -14.7263 -8.1378 -33.0589 5.8630 14.2942 44.4292 0.9710 -13.2809 -18.6368 4.6535 12.9826 39.3034 0.0000 0.0000 0.0000 9.4992 -3.0839 -36.2965 -15.6680 -19.5440 77.2410 0.7978 21.1940 23.2565 -1.2896 -7.1957 20.2963 -10.5282 -0.8226 -2.6918 9.2918 -0.7287 -8.7943 16.6587 0.9067 -7.8779 -8.6955 -1.2894 0.1933 1.3371 -1.7291 0.3910 1.8993 -0.8754 0.1808 -0.0000 0.0000 0.0000 -102.6833 27.6475 14.7003 31.7701 -42.3632 -12.5857 -0.0000 0.0000 -12.5987 -4.0883 21.8832 -1.5260 -7.1250 0.0000 -0.0000 -31.7558 49.0170 -3.4665 -0.0000 0.0000 0.0000 57.0638 -19.1531 36.4677 -27.0915 38.2663 -9.5557 0.0000 -0.0000 -2.2826 -22.1284 -11.9806 4.8249 7.1250 -0.0000 -0.0000 4.6030 -42.8360 0.2464
0.00 0.00 0.00 -1.2695 13.3422 3.6475 0.0000 0.0000 0.0000 -18.2702 -8.3096 -28.6208 5.3880 13.8078 42.4729 0.7211 -14.6158 -17.0884 5.2504 13.6604 41.8937 0.0000 0.0000 0.0000 -0.3581 2.9822 -38.9960 -20.4408 -19.9953 91.2889 -2.8134 19.9059 43.3924 -1.8596 -8.5674 24.4512 -12.3636 -1.3779 0.1482 7.8058 -1.9096 -7.9337 16.0778 0.3192 -8.1372 -7.6361 -1.5400 0.1334 1.6339 -2.0642 -0.1972 1.8069 -1.0283 0.0158 0.0000 -0.0000 0.0000 -98.6303 27.2635 18.9141 32.1588 -42.6734 -12.8483 -0.0000 0.0000 -13.4743 -5.2498 21.4755 -1.9266 -7.1250 0.0000 -0.0000 -32.5299 48.4988 -3.1150 0.0000 -0.0000 0.0000 58.1035 -19.8671 31.7116 -27.4141 38.5712 -9.7562 0.0000 -0.0000 -0.8997 -24.8761 -12.7201 5.8295 7.1250 -0.0000 -0.0000 2.2186 -43.9408 0.0580
0.00 0.00 0.00 -1.3831 17.2293 0.0621 0.0000 0.0000 0.0000 -19.2190 -7.6384 -23.3252 4.7555 13.1031 39.7557 0.4067 -15.7432 -14.9422 5.7385 14.1700 43.9230 0.0000 0.0000 0.0000 -10.4544 12.0462 -42.8033 -26.2653 -19.0316 108.6072 -2.7138 22.8987 45.4670 -0.2292 -3.0812 8.5048 -11.8659 -1.9223 2.8727 6.5700 -2.9727 -6.4650 14.3747 -0.4552 -7.7142 -6.4787 -1.9751 0.2024 2.1174 -2.6476 -0.7771 1.7602 -1.3123 -0.1572 0.0000 -0.0000 0.0000 -91.9264 24.6040 26.2338 31.0699 -41.7930 -12.1164 -0.0000 0.0000 -12.8496 -8.0007 18.7647 -2.5888 -7.1250 0.0000 -0.0000 -33.3602 45.8160 -0.7574 0.0000 -0.0000 0.0000 59.4669 -21.5720 27.3623 -27.7859 38.9184 -9.9889 0.0000 0.0000 2.3959 -29.8459 -14.9011 8.3932 7.1250 -0.0000 -0.0000 -2.1854 -47.0234 0.1092
0.00 0.00 0.00 -8.9545 26.9370 -11.7807 0.0000 0.0000 0.0000 -14.2958 -7.2270 -12.3788 3.9125 12.0431 35.8845 -0.3437 -18.4076 -9.5773 7.1039 15.4188 49.2664 0.0000 0.0000 0.0000 -21.0776 23.3005 -55.3032 -25.2455 -19.3271 105.5038 -1.3622 14.2822 31.2591 -0.3548 -3.8268 10.5898 -3.7670 -3.9703 12.3734 4.9159 -5.4691 -2.5522 8.5268 -2.3013 -8.8543 -3.9979 -3.3733 -0.8464 4.0657 -4.4319 -1.7321 1.9338 -2.2050 -0.2055 -0.0000 0.0000 0.0000 -81.7118 12.5837 36.3621 27.5024 -38.6541 -9.8113 -0.0000 0.0000 -7.9971 -9.1521 16.7187 -2.6535 -7.1250 0.0000 -0.0000 -33.2542 43.9309 0.9953 -0.0000 0.0000 0.0000 64.2683 -28.0816 16.4423 -31.9020 42.4689 -12.6746 0.0000 0.0000 7.2515 -22.8029 -17.6953 7.2823 7.1250 -0.0000 -0.0000 5.0988 -49.0033 -0.5046
0.00 0.00 0.00 -8.9944 25.8549 -12.4268 0.0000 0.0000 0.0000 -13.4316 -3.6695 -13.9420 4.5162 12.8173 38.6885 -0.7774 -21.7845 -8.5439 7.3035 15.5822 50.0130 0.0000 0.0000 0.0000 -9.1878 14.6088 -57.3801 -7.8414 -16.0014 51.9895 0.4492 13.4938 12.0249 -0.4110 4.1154 -11.4016 -2.0033 -3.2591 14.5500 3.6006 -4.3578 -1.2695 5.9872 -1.8954 -9.1093 -2.2452 -3.7289 -1.7341 4.2252 -4.8913 -1.9937 1.6584 -2.4368 -0.1573 0.0000 -0.0000 0.0000 -80.8178 3.8938 40.0892 27.5339 -38.6836 -9.8310 -0.0000 0.0000 -9.1221 -6.2410 10.4418 -1.1354 -7.1250 0.0000 -0.0000 -28.2435 38.7651 4.8004 0.0000 -0.0000 0.0000 69.0603 -30.5356 3.3861 -34.9779 44.7963 -14.7978 0.0000 -0.0000 -0.8377 -9.3733 -18.3524 2.9752 7.1250 -0.0000 -0.0000 17.9505 -47.7236 -1.2442
0.00 0.00 0.00 -5.2835 20.5915 -9.6416 0.0000 0.0000 0.0000 -15.7333 1.0055 -16.6740 4.8830 13.2508 40.3147 -0.6607 -21.3904 -9.2932 7.4369 15.6890 50.5079 0.0000 0.0000 0.0000 34.9079 -7.4897 -81.4804 -6.1134 -14.5374 45.4353 1.5389 23.6070 -2.0626 -7.2744 15.5587 -49.9047 -3.7926 -0.9290 14.1989 1.0485 -1.7961 -1.2452 3.6702 -0.6422 -9.1878 0.2911 -4.1278 -2.4065 5.0191 -5.4838 -1.4808 1.4473 -2.7309 0.0841 0.0000 -0.0000 0.0000 -77.3169 4.0425 45.8287 35.6017 -45.2370 -15.2390 -0.0000 0.0000 -13.1032 -6.5246 11.2561 -1.2789 -7.1250 0.0000 -0.0000 -28.7708 39.4610 4.3564 0.0000 -0.0000 0.0000 77.4664 -28.2436 -10.4020 -38.3252 47.0457 -17.2032 0.0000 -0.0000 -10.9103 -16.7267 -22.6752 6.6085 7.1250 -0.0000 -0.0000 12.7239 -53.1014 -2.5689
